# xmcd CD database file
#
# Track frame offsets:
#	150
#	15265
#	31262
#	49033
#	65184
#	77738
#	96504
#	109732
#
# Disc length: 1650 seconds
#
# Revision: 1
# Processed by: cddbd v1.5.2PL0 Copyright (c) Steve Scherf et al.
# Submitted via: CDex 1.51
#
DISCID=60067008
DTITLE=The Apologists - Welcome to Garage Country
DYEAR=2004
DGENRE=Country
TTITLE0=Greenback Dollar
TTITLE1=Drunk Talk
TTITLE2=Lion in the Tribes of Judah
TTITLE3=Must I Be the One
TTITLE4=Revenge
TTITLE5=The Cuckoo
TTITLE6=Blisters
TTITLE7=We're Only Happy When We're Drinking
EXTD=YEAR: 2004
EXTT0=
EXTT1=
EXTT2=
EXTT3=
EXTT4=
EXTT5=
EXTT6=
EXTT7=
PLAYORDER=
